<?xml version="1.0" encoding="iso-8859-1"?>
<!-- Uploaded to: SVG Repo, www.svgrepo.com, Generator: SVG Repo Mixer Tools -->
<svg fill="#8D93B5" version="1.1" id="Layer_1" xmlns="http://www.w3.org/2000/svg" xmlns:xlink="http://www.w3.org/1999/xlink" 
	 viewBox="0 0 511.999 511.999" xml:space="preserve">
<g>
	<g>
		<path d="M236.11,155.626l-0.204-0.573c-1.797-5.052-4.511-12.687-12.198-20.374c-17.826-17.826-46.669-17.982-64.3-0.351
			c-9.229,9.229-13.934,21.715-13.355,34.371c-12.666-0.579-25.144,4.128-34.371,13.355c-8.631,8.631-13.313,20.067-13.185,32.203
			c0.127,12.023,4.955,23.403,13.594,32.04c8.145,8.145,15.388,10.597,20.677,12.388l0.327,0.111
			c7.949,2.695,22.139,3.574,37.272,3.574c25.932,0,54.636-2.581,59.454-3.033l6.265-0.587l0.603-6.264
			C237.428,244.808,243.689,176.855,236.11,155.626z M222.099,244.727c-23.297,1.904-69.88,4.475-84.113-0.351l-0.334-0.113
			c-4.505-1.525-9.163-3.101-14.793-8.732c-12.09-12.089-12.269-30.85-0.409-42.709c5.817-5.816,13.573-8.938,21.535-8.938
			c3.039,0,6.109,0.455,9.111,1.389l13.833,4.302l-4.302-13.833c-3.379-10.867-0.486-22.609,7.549-30.646
			c5.718-5.718,13.286-8.852,21.315-8.754c8.035,0.073,15.653,3.307,21.452,9.106c5.257,5.258,7.043,10.278,8.618,14.708
			l0.211,0.592C226.729,174.632,224.064,221.348,222.099,244.727z"/>
	</g>
</g>
<g>
	<g>
		<path d="M510.89,153.265c-4.334-33.496-22.019-61.18-52.567-82.282l-9.215-6.365l-195.73,240.767
			c-34.22,42.092-71.098,52.205-119.63,32.768l-5.48-2.148l-2.942,1.351c-2.768,1.272-68.113,31.352-96.004,49.654
			C0.827,405.709-1.903,420.514,0.825,429.643c3.318,11.107,16.297,17.737,34.716,17.737h155.792
			c24.736,0,49.314-3.499,73.053-10.399c59.818-17.386,110.863-60.026,140.045-116.988c6.434-12.558,11.997-21.168,16.627-27.077
			l15.333,153.449h42.445l18.621-200.256C509.987,208.857,514.262,179.328,510.89,153.265z M464.961,431.139h-14.787
			l-15.096-151.076c0.155-0.102,0.31-0.203,0.466-0.305c0.609-0.395,1.224-0.786,1.843-1.176c0.302-0.19,0.6-0.381,0.904-0.569
			c0.818-0.51,1.643-1.014,2.474-1.515c0.103-0.062,0.202-0.124,0.305-0.186c0.936-0.561,1.879-1.116,2.826-1.666
			c0.291-0.169,0.584-0.335,0.876-0.503c0.665-0.382,1.331-0.761,1.999-1.137c0.348-0.196,0.696-0.389,1.045-0.583
			c0.627-0.348,1.255-0.694,1.883-1.036c0.347-0.19,0.695-0.379,1.043-0.566c0.666-0.359,1.332-0.714,1.997-1.066
			c0.296-0.156,0.593-0.316,0.888-0.471c1.914-1.005,3.821-1.979,5.702-2.921c0.299-0.149,0.595-0.295,0.893-0.443
			c0.643-0.319,1.283-0.634,1.919-0.945c0.344-0.168,0.687-0.334,1.029-0.5c0.599-0.29,1.194-0.577,1.786-0.859
			c0.327-0.156,0.654-0.313,0.978-0.466c0.643-0.305,1.278-0.603,1.909-0.898c0.252-0.118,0.508-0.239,0.758-0.354
			c0.877-0.408,1.744-0.807,2.594-1.195c0.082-0.038,0.161-0.073,0.244-0.111c0.766-0.349,1.521-0.689,2.262-1.021
			c0.265-0.119,0.523-0.232,0.784-0.349c0.554-0.247,1.102-0.49,1.639-0.727c0.279-0.123,0.554-0.244,0.827-0.363
			c0.517-0.226,1.025-0.448,1.524-0.663c0.249-0.108,0.499-0.216,0.743-0.322c0.558-0.241,1.102-0.473,1.634-0.699
			c0.122-0.052,0.25-0.107,0.371-0.158L464.961,431.139z M483.871,238.736c-0.119,0.047-0.254,0.1-0.379,0.15
			c-0.191,0.075-0.375,0.148-0.578,0.229c-0.35,0.139-0.719,0.286-1.104,0.442c-0.183,0.074-0.381,0.153-0.572,0.23
			c-0.254,0.103-0.505,0.204-0.772,0.313c-0.217,0.088-0.444,0.181-0.669,0.273c-0.258,0.106-0.518,0.212-0.788,0.323
			c-0.241,0.099-0.485,0.2-0.735,0.303c-0.274,0.114-0.553,0.229-0.838,0.347c-0.257,0.107-0.513,0.213-0.778,0.325
			c-0.326,0.136-0.662,0.278-0.999,0.42c-0.237,0.099-0.466,0.196-0.708,0.298c-0.566,0.241-1.145,0.487-1.74,0.743
			c-0.204,0.087-0.416,0.181-0.623,0.27c-0.426,0.184-0.855,0.37-1.295,0.56c-0.262,0.114-0.53,0.232-0.797,0.349
			c-0.395,0.173-0.792,0.347-1.196,0.526c-0.291,0.129-0.586,0.259-0.882,0.391c-0.402,0.179-0.809,0.36-1.22,0.545
			c-0.296,0.133-0.591,0.265-0.891,0.4c-0.455,0.205-0.918,0.416-1.382,0.627c-0.264,0.12-0.524,0.237-0.791,0.36
			c-0.717,0.329-1.442,0.664-2.178,1.006c-0.176,0.082-0.356,0.167-0.533,0.25c-0.584,0.273-1.169,0.548-1.763,0.829
			c-0.281,0.133-0.566,0.27-0.85,0.405c-0.495,0.237-0.992,0.474-1.493,0.716c-0.314,0.151-0.628,0.304-0.944,0.457
			c-0.489,0.238-0.981,0.477-1.474,0.72c-0.318,0.156-0.634,0.312-0.953,0.469c-0.528,0.261-1.06,0.527-1.592,0.794
			c-0.281,0.141-0.56,0.279-0.843,0.422c-0.804,0.406-1.612,0.816-2.423,1.233c-0.124,0.064-0.248,0.129-0.371,0.193
			c-0.696,0.359-1.395,0.723-2.095,1.091c-0.291,0.153-0.584,0.31-0.876,0.464c-0.539,0.285-1.079,0.573-1.619,0.863
			c-0.324,0.174-0.648,0.349-0.971,0.525c-0.522,0.283-1.045,0.568-1.566,0.856c-0.319,0.176-0.638,0.351-0.956,0.528
			c-0.558,0.311-1.117,0.624-1.674,0.939c-0.276,0.156-0.553,0.311-0.829,0.468c-0.825,0.47-1.648,0.944-2.469,1.423
			c-0.063,0.037-0.126,0.075-0.189,0.112c-0.758,0.445-1.515,0.893-2.268,1.346c-0.274,0.164-0.547,0.332-0.82,0.498
			c-0.545,0.331-1.089,0.663-1.63,0.998c-0.306,0.189-0.609,0.379-0.913,0.568c-0.518,0.324-1.033,0.651-1.546,0.979
			c-0.297,0.19-0.594,0.38-0.89,0.57c-0.544,0.352-1.084,0.707-1.621,1.062c-0.251,0.165-0.502,0.33-0.751,0.496
			c-0.781,0.523-1.556,1.048-2.321,1.577l-3.683,2.554l0.029,0.29c-8.996,7.723-18.455,21.205-28.18,40.186
			c-27.28,53.246-74.933,93.088-130.744,109.309c-22.358,6.499-45.508,9.794-68.804,9.794H35.54
			c-12.418,0-19.138-3.561-20.127-6.869c-1.015-3.396,2.532-12.597,22.262-25.544c23.683-15.541,77.879-41.049,91.074-47.189
			c27.517,10.911,51.963,13.111,74.717,6.73c22.418-6.287,42.609-20.776,61.727-44.292l186.832-229.82
			C498.58,118.601,508.161,164.84,483.871,238.736z"/>
	</g>
</g>
<g>
	<g>
		<path d="M246.4,399.676c-16.319,4.67-33.185,7.527-50.132,8.491l0.866,15.203c18.07-1.028,36.055-4.076,53.455-9.055
			L246.4,399.676z"/>
	</g>
</g>
<g>
	<g>
		
			<rect x="351.202" y="215.754" transform="matrix(0.6308 -0.776 0.776 0.6308 -38.7874 365.2205)" width="26.356" height="15.228"/>
	</g>
</g>
<g>
	<g>
		
			<rect x="366.588" y="162.269" transform="matrix(0.6308 -0.7759 0.7759 0.6308 18.7722 379.2196)" width="82.628" height="15.226"/>
	</g>
</g>
</svg>